<?xml version="1.0" standalone="no"?>
<!DOCTYPE svg PUBLIC "-//W3C//DTD SVG 20010904//EN"
 "http://www.w3.org/TR/2001/REC-SVG-20010904/DTD/svg10.dtd">
<svg version="1.0" xmlns="http://www.w3.org/2000/svg"
 width="1280.000000pt" height="1120.000000pt" viewBox="0 0 1280.000000 1120.000000"
 preserveAspectRatio="xMidYMid meet">
<metadata>
Created by potrace 1.15, written by Peter Selinger 2001-2017
</metadata>
<g transform="translate(0.000000,1120.000000) scale(0.100000,-0.100000)"
fill="#000000" stroke="none">
<path d="M7095 11193 c-797 -8 -1556 -32 -1782 -58 -127 -14 -163 -26 -163
-50 0 -8 46 -49 103 -91 514 -387 1074 -1007 1545 -1710 143 -214 371 -606
449 -774 17 -36 51 -109 76 -162 l46 -97 -340 -262 c-187 -144 -342 -266 -345
-271 -3 -4 23 -8 58 -8 35 0 329 -7 653 -15 892 -22 1468 -36 1793 -43 l292
-7 746 1118 c410 616 744 1121 742 1123 -2 2 -163 -75 -357 -171 -194 -96
-355 -175 -356 -175 -2 0 -46 69 -97 153 -453 743 -824 1122 -1430 1458 l-88
49 -658 -2 c-361 -2 -760 -4 -887 -5z"/>
<path d="M4255 11009 c-142 -9 -354 -42 -535 -85 l-115 -27 -120 -121 c-286
-289 -481 -554 -887 -1206 -102 -162 -209 -332 -238 -378 -29 -45 -51 -84 -49
-86 12 -9 2504 -1421 2513 -1424 11 -2 1431 2158 1431 2177 0 16 -419 464
-543 580 -285 267 -495 403 -762 492 -205 68 -429 93 -695 78z"/>
<path d="M140 7577 c3 -3 201 -123 440 -267 239 -144 436 -264 438 -265 2 -2
-216 -440 -483 -974 l-486 -972 53 -87 c224 -374 475 -683 673 -830 250 -185
689 -264 1459 -264 259 1 332 3 341 14 7 7 223 398 480 870 l468 856 46 -20
c183 -78 800 -338 804 -338 5 0 -1318 2208 -1333 2223 -8 9 -347 16 -1645 36
-363 6 -795 14 -960 17 -165 4 -298 4 -295 1z"/>
<path d="M10223 6897 l-1343 -672 1071 -1744 1071 -1744 33 -151 c50 -226 58
-301 52 -455 -6 -161 -32 -265 -102 -406 -35 -72 -74 -126 -193 -265 -133
-155 -148 -177 -135 -190 13 -13 25 -4 104 80 49 52 115 131 146 175 32 44 96
127 143 185 875 1065 1325 1833 1566 2670 102 356 164 783 164 1143 l0 117
-612 958 c-336 526 -614 960 -617 964 -3 3 -610 -296 -1348 -665z"/>
<path d="M7 4774 c-9 -9 39 -138 92 -244 447 -898 606 -1194 829 -1540 287
-445 523 -742 852 -1071 210 -211 364 -345 572 -500 215 -161 506 -342 718
-449 l80 -40 1229 0 1230 0 5 43 c3 23 10 337 16 697 19 1160 29 1742 34 1887
l5 141 -82 6 c-45 3 -442 10 -882 16 -440 6 -1041 15 -1335 20 -294 5 -890 15
-1325 21 l-790 12 -172 53 c-364 112 -539 203 -710 372 -104 103 -149 174
-248 390 -80 174 -99 204 -118 186z"/>
<path d="M7260 3340 c-399 -588 -726 -1076 -728 -1083 -2 -8 306 -517 683
-1133 578 -943 712 -1153 715 -1122 1 2 16 207 34 455 18 249 35 455 38 458 6
6 -5 5 1113 105 495 44 973 87 1063 95 89 8 165 15 168 15 8 0 185 273 248
384 203 352 295 615 283 806 -18 276 -213 705 -551 1213 -54 80 -102 150 -109
155 -7 5 -417 -15 -1072 -54 -583 -35 -1062 -60 -1066 -56 -5 6 -80 783 -79
820 0 6 -3 12 -7 11 -5 0 -334 -481 -733 -1069z"/>
</g>
</svg>
